# xmcd
#
# Track frame offsets:
#       150
#       20947
#       39660
#       63770
#       85905
#       111337
#       130895
#       152642
#       168350
#       186617
#       203712
#       222090
#
# Disc length: 3265 seconds
#
# Revision: 0
# Processed by: cddbd v1.4PL0 Copyright (c) Steve Scherf et al.
# Submitted via: CD-DA_X-Tractor v0.21
#
DISCID=ab0cbf0c
DTITLE=Vários - Círio - 4º Canto Interuniversi
DYEAR=1900
DGENRE=
TTITLE0=Acordes pa´l funeral de Don Atahualpa Yupangui - Robledo Martins
TTITLE1=La canción del quisiera - Guilherme Collares
TTITLE2=Alguém distante - Marcello Caminha
TTITLE3=Rincão nativo - Márcio Corrêa
TTITLE4=Na visão dos cerros - Emerson Irion Oliveira
TTITLE5=Envuelta en lágrimas - Enrique Castiglioni
TTITLE6=Tarde de sol - Marício Marques
TTITLE7=Bem correntino - Erlon Péricles
TTITLE8=Presságios - Erlon Péricles
TTITLE9=Novos tempos - Maurício Marques
TTITLE10=En Casablanca - Claudio Rinaldi
TTITLE11=Velho João esquilador - Fernando Mendes
EXTD=
EXTT0=
EXTT1=
EXTT2=
EXTT3=
EXTT4=
EXTT5=
EXTT6=
EXTT7=
EXTT8=
EXTT9=
EXTT10=
EXTT11=
PLAYORDER=
